<?xml version="1.0" encoding="iso-8859-1"?>
<!-- Generator: Adobe Illustrator 19.0.0, SVG Export Plug-In . SVG Version: 6.00 Build 0)  -->
<svg version="1.1" id="Layer_1" xmlns="http://www.w3.org/2000/svg" xmlns:xlink="http://www.w3.org/1999/xlink" x="0px" y="0px"
	 viewBox="0 0 512 512" style="enable-background:new 0 0 512 512;" xml:space="preserve">
<polyline style="fill:#FFFFFF;" points="368.219,418.484 129.753,259.507 354.192,259.507 256,133.26 "/>
<g>
	<polygon style="fill:#0052B4;" points="356.548,435.99 118.083,277.013 129.753,238.466 311.17,238.466 239.392,146.178 
		272.608,120.342 370.8,246.589 354.192,280.548 199.248,280.548 379.89,400.977 	"/>
	<path style="fill:#0052B4;" d="M438.356,512H73.644c-34.718,0-63.123-28.405-63.123-63.123l0,0
		c0-34.718,28.405-63.123,63.123-63.123h364.712c34.718,0,63.123,28.405,63.123,63.123l0,0C501.479,483.595,473.074,512,438.356,512
		z"/>
</g>
<path style="fill:#003778;" d="M438.356,385.753H256V512h182.356c34.718,0,63.123-28.405,63.123-63.123
	S473.074,385.753,438.356,385.753z"/>
<path style="fill:#0052B4;" d="M354.192,0H157.808c-34.806,0-63.123,28.317-63.123,63.123v42.082
	c0,34.806,28.317,63.123,63.123,63.123h196.384c34.806,0,63.123-28.317,63.123-63.123V63.123C417.315,28.317,388.998,0,354.192,0z"
	/>
<path style="fill:#003778;" d="M354.192,0H256v168.329h98.192c34.806,0,63.123-28.317,63.123-63.123V63.123
	C417.315,28.317,388.998,0,354.192,0z"/>
<g>
	<circle style="fill:#78B9EB;" cx="192.877" cy="84.164" r="21.041"/>
	<circle style="fill:#78B9EB;" cx="319.123" cy="84.164" r="21.041"/>
</g>
<path style="fill:#003778;" d="M150.795,336.658c-34.806,0-63.123-28.317-63.123-63.123c0-34.806,28.317-63.123,63.123-63.123
	s63.123,28.317,63.123,63.123C213.918,308.34,185.601,336.658,150.795,336.658z M150.795,252.493
	c-11.602,0-21.041,9.439-21.041,21.041c0,11.602,9.439,21.041,21.041,21.041s21.041-9.439,21.041-21.041
	C171.836,261.932,162.397,252.493,150.795,252.493z"/>
<circle style="fill:#0052B4;" cx="361.205" cy="273.534" r="42.082"/>
<path style="fill:#003778;" d="M361.205,336.658c-34.806,0-63.123-28.317-63.123-63.123c0-34.806,28.317-63.123,63.123-63.123
	s63.123,28.317,63.123,63.123C424.329,308.34,396.012,336.658,361.205,336.658z M361.205,252.493
	c-11.602,0-21.041,9.439-21.041,21.041c0,11.602,9.439,21.041,21.041,21.041c11.602,0,21.041-9.439,21.041-21.041
	C382.247,261.932,372.808,252.493,361.205,252.493z"/>
<g>
	<circle style="fill:#006DF0;" cx="122.74" cy="448.877" r="21.041"/>
	<circle style="fill:#006DF0;" cx="211.575" cy="448.877" r="21.041"/>
</g>
<g>
	<circle style="fill:#0052B4;" cx="300.425" cy="448.877" r="21.041"/>
	<circle style="fill:#0052B4;" cx="389.26" cy="448.877" r="21.041"/>
</g>
<g>
</g>
<g>
</g>
<g>
</g>
<g>
</g>
<g>
</g>
<g>
</g>
<g>
</g>
<g>
</g>
<g>
</g>
<g>
</g>
<g>
</g>
<g>
</g>
<g>
</g>
<g>
</g>
<g>
</g>
</svg>
