<?xml version="1.0" encoding="iso-8859-1"?>
<!-- Generator: Adobe Illustrator 19.0.0, SVG Export Plug-In . SVG Version: 6.00 Build 0)  -->
<svg version="1.1" id="Layer_1" xmlns="http://www.w3.org/2000/svg" xmlns:xlink="http://www.w3.org/1999/xlink" x="0px" y="0px"
	 viewBox="0 0 512 512" style="enable-background:new 0 0 512 512;" xml:space="preserve">
<path style="fill:#93C7EF;" d="M512,177.778v-42.667h-49.778v-21.333c0-35.29-28.71-64-64-64h-21.333V0h-42.667v49.778h-56.889V0
	h-42.667v49.778h-56.889V0h-42.667v49.778h-21.333c-35.29,0-64,28.71-64,64v21.333H0v42.667h49.778v56.889H0v42.667h49.778v56.889H0
	v42.667h49.778v21.333c0,35.29,28.71,64,64,64h21.333V512h42.667v-49.778h56.889V512h42.667v-49.778h56.889V512h42.667v-49.778
	h21.333c35.29,0,64-28.71,64-64v-21.333H512v-42.667h-49.778v-56.889H512v-42.667h-49.778v-56.889H512z"/>
<path style="fill:#78B9EB;" d="M512,177.778v-42.667h-49.778v-21.333c0-35.29-28.71-64-64-64h-21.333V0h-42.667v49.778h-56.889V0
	H256v512h21.333v-49.778h56.889V512h42.667v-49.778h21.333c35.29,0,64-28.71,64-64v-21.333H512v-42.667h-49.778v-56.889H512v-42.667
	h-49.778v-56.889H512z"/>
<path style="fill:#BEDDF5;" d="M376.889,376.889H135.111V135.111h241.778V376.889z"/>
<path style="fill:#93C7EF;" d="M376.889,376.889H256V135.111h120.889V376.889z"/>
<g>
</g>
<g>
</g>
<g>
</g>
<g>
</g>
<g>
</g>
<g>
</g>
<g>
</g>
<g>
</g>
<g>
</g>
<g>
</g>
<g>
</g>
<g>
</g>
<g>
</g>
<g>
</g>
<g>
</g>
</svg>
